<mxfile host="Electron" modified="2023-05-29T17:52:25.815Z" agent="Mozilla/5.0 (Windows NT 10.0; Win64; x64) AppleWebKit/537.36 (KHTML, like Gecko) draw.io/21.2.8 Chrome/112.0.5615.165 Electron/24.2.0 Safari/537.36" etag="-ntle-TRF5EZpRYnqO40" version="21.2.8" type="device">
  <diagram name="Page-1" id="eYNsXmMQqoa4XI64GCwB">
    <mxGraphModel dx="1610" dy="1449" grid="1" gridSize="10" guides="1" tooltips="1" connect="1" arrows="1" fold="1" page="1" pageScale="1" pageWidth="850" pageHeight="1100" background="none" math="0" shadow="0">
      <root>
        <mxCell id="0" />
        <mxCell id="1" parent="0" />
        <mxCell id="jhdVVqk1T00AznI-LJh0-1" value="" style="verticalLabelPosition=bottom;verticalAlign=top;html=1;shadow=0;dashed=0;strokeWidth=1;shape=mxgraph.android.phone2;strokeColor=#c0c0c0;" parent="1" vertex="1">
          <mxGeometry x="80" y="-590" width="200" height="430" as="geometry" />
        </mxCell>
        <mxCell id="jhdVVqk1T00AznI-LJh0-2" value="Liste de cusine" style="rounded=0;whiteSpace=wrap;html=1;" parent="1" vertex="1">
          <mxGeometry x="90" y="-550" width="180" height="30" as="geometry" />
        </mxCell>
        <mxCell id="jhdVVqk1T00AznI-LJh0-3" value="Image" style="rounded=0;whiteSpace=wrap;html=1;" parent="1" vertex="1">
          <mxGeometry x="120" y="-500" width="120" height="40" as="geometry" />
        </mxCell>
        <mxCell id="jhdVVqk1T00AznI-LJh0-4" value="Cuisine Quebecoise" style="rounded=0;whiteSpace=wrap;html=1;" parent="1" vertex="1">
          <mxGeometry x="120" y="-470" width="120" height="20" as="geometry" />
        </mxCell>
        <mxCell id="jhdVVqk1T00AznI-LJh0-5" value="Image" style="rounded=0;whiteSpace=wrap;html=1;" parent="1" vertex="1">
          <mxGeometry x="120" y="-440" width="120" height="50" as="geometry" />
        </mxCell>
        <mxCell id="jhdVVqk1T00AznI-LJh0-6" value="Cuisine Francaise" style="rounded=0;whiteSpace=wrap;html=1;" parent="1" vertex="1">
          <mxGeometry x="120" y="-400" width="120" height="20" as="geometry" />
        </mxCell>
        <mxCell id="jhdVVqk1T00AznI-LJh0-7" value="Image" style="rounded=0;whiteSpace=wrap;html=1;" parent="1" vertex="1">
          <mxGeometry x="120" y="-370" width="120" height="40" as="geometry" />
        </mxCell>
        <mxCell id="jhdVVqk1T00AznI-LJh0-8" value="Cuisine Marocaine" style="rounded=0;whiteSpace=wrap;html=1;" parent="1" vertex="1">
          <mxGeometry x="120" y="-330" width="120" height="20" as="geometry" />
        </mxCell>
        <mxCell id="jhdVVqk1T00AznI-LJh0-9" value="" style="verticalLabelPosition=bottom;verticalAlign=top;html=1;shadow=0;dashed=0;strokeWidth=1;shape=mxgraph.android.phone2;strokeColor=#c0c0c0;" parent="1" vertex="1">
          <mxGeometry x="80" y="-120" width="200" height="430" as="geometry" />
        </mxCell>
        <mxCell id="jhdVVqk1T00AznI-LJh0-10" value="Recette de cuisine Quebecoise" style="rounded=0;whiteSpace=wrap;html=1;" parent="1" vertex="1">
          <mxGeometry x="90" y="-80" width="180" height="30" as="geometry" />
        </mxCell>
        <mxCell id="jhdVVqk1T00AznI-LJh0-11" value="Image" style="rounded=0;whiteSpace=wrap;html=1;" parent="1" vertex="1">
          <mxGeometry x="120" y="-30" width="120" height="60" as="geometry" />
        </mxCell>
        <mxCell id="jhdVVqk1T00AznI-LJh0-12" value="" style="rounded=0;whiteSpace=wrap;html=1;" parent="1" vertex="1">
          <mxGeometry x="260" y="-50" width="10" height="280" as="geometry" />
        </mxCell>
        <mxCell id="jhdVVqk1T00AznI-LJh0-15" value="Scroll view" style="rounded=0;whiteSpace=wrap;html=1;" parent="1" vertex="1">
          <mxGeometry x="340" y="40" width="100" height="20" as="geometry" />
        </mxCell>
        <mxCell id="jhdVVqk1T00AznI-LJh0-16" value="Recette" style="rounded=0;whiteSpace=wrap;html=1;" parent="1" vertex="1">
          <mxGeometry x="120" y="30" width="120" height="20" as="geometry" />
        </mxCell>
        <mxCell id="jhdVVqk1T00AznI-LJh0-17" value="Image" style="rounded=0;whiteSpace=wrap;html=1;" parent="1" vertex="1">
          <mxGeometry x="120" y="70" width="120" height="60" as="geometry" />
        </mxCell>
        <mxCell id="jhdVVqk1T00AznI-LJh0-18" value="Recette" style="rounded=0;whiteSpace=wrap;html=1;" parent="1" vertex="1">
          <mxGeometry x="120" y="130" width="120" height="20" as="geometry" />
        </mxCell>
        <mxCell id="jhdVVqk1T00AznI-LJh0-19" value="retour" style="rounded=0;whiteSpace=wrap;html=1;" parent="1" vertex="1">
          <mxGeometry x="120" y="200" width="120" height="30" as="geometry" />
        </mxCell>
        <mxCell id="jhdVVqk1T00AznI-LJh0-21" value="" style="verticalLabelPosition=bottom;verticalAlign=top;html=1;shadow=0;dashed=0;strokeWidth=1;shape=mxgraph.android.phone2;strokeColor=#c0c0c0;" parent="1" vertex="1">
          <mxGeometry x="-270" y="-10" width="200" height="430" as="geometry" />
        </mxCell>
        <mxCell id="jhdVVqk1T00AznI-LJh0-22" value="DetailProduit" style="rounded=0;whiteSpace=wrap;html=1;" parent="1" vertex="1">
          <mxGeometry x="-260" y="30" width="180" height="20" as="geometry" />
        </mxCell>
        <mxCell id="jhdVVqk1T00AznI-LJh0-23" value="Image" style="rounded=0;whiteSpace=wrap;html=1;" parent="1" vertex="1">
          <mxGeometry x="-250" y="70" width="90" height="90" as="geometry" />
        </mxCell>
        <mxCell id="jhdVVqk1T00AznI-LJh0-24" value="Image" style="rounded=0;whiteSpace=wrap;html=1;" parent="1" vertex="1">
          <mxGeometry x="-150" y="70" width="60" height="40" as="geometry" />
        </mxCell>
        <mxCell id="jhdVVqk1T00AznI-LJh0-25" value="Image" style="rounded=0;whiteSpace=wrap;html=1;" parent="1" vertex="1">
          <mxGeometry x="-150" y="120" width="60" height="40" as="geometry" />
        </mxCell>
        <mxCell id="jhdVVqk1T00AznI-LJh0-26" value="- Name&lt;br&gt;-Description&lt;br&gt;-Ingredient&lt;br&gt;-Etape de préparation:" style="rounded=0;whiteSpace=wrap;html=1;" parent="1" vertex="1">
          <mxGeometry x="-250" y="185" width="160" height="140" as="geometry" />
        </mxCell>
        <mxCell id="jhdVVqk1T00AznI-LJh0-28" value="retour" style="rounded=0;whiteSpace=wrap;html=1;" parent="1" vertex="1">
          <mxGeometry x="-250" y="340" width="160" height="30" as="geometry" />
        </mxCell>
        <mxCell id="0M3PZkxBcpdMloxoKqqF-1" value="-L&#39;application doit permettre aux utilisateurs de sélectionner une catégorie spécifique de recettes, comme la cuisine québécoise, française ou marocaine.&lt;br&gt;&lt;br&gt;-Ces catégories seront stockées dans une base de données et récupérées lorsque nécessaire.&lt;br&gt;&lt;br&gt;-Chaque estreprésentée par un nom et&amp;nbsp; une image associée." style="text;html=1;strokeColor=none;fillColor=none;align=left;verticalAlign=middle;whiteSpace=wrap;rounded=0;" parent="1" vertex="1">
          <mxGeometry x="320" y="-580" width="560" height="100" as="geometry" />
        </mxCell>
        <mxCell id="0M3PZkxBcpdMloxoKqqF-2" value="-Lorsque l&#39;utilisateur sélectionne une catégorie, l&#39;application affiche une liste de recettes correspondantes à cette catégorie.&lt;br&gt;&lt;br&gt;-La liste est présentée sous forme de vignettes ou de cartes, avec le nom, une image miniature de chaque recette.&lt;br&gt;&lt;br&gt;-Lorsque l&#39;utilisateur clique sur une recette, l&#39;application affiche les détails complets de la recette, y compris la description, les ingrédients, les étapes de préparation et les images associées." style="text;html=1;strokeColor=none;fillColor=none;align=left;verticalAlign=middle;whiteSpace=wrap;rounded=0;" parent="1" vertex="1">
          <mxGeometry x="340" y="-90" width="680" height="140" as="geometry" />
        </mxCell>
        <mxCell id="V0fHYmV4c1mkur13brEI-2" value="add recette" style="rounded=0;whiteSpace=wrap;html=1;" vertex="1" parent="1">
          <mxGeometry x="95" y="240" width="170" height="30" as="geometry" />
        </mxCell>
        <mxCell id="V0fHYmV4c1mkur13brEI-3" value="" style="verticalLabelPosition=bottom;verticalAlign=top;html=1;shadow=0;dashed=0;strokeWidth=1;shape=mxgraph.android.phone2;strokeColor=#c0c0c0;" vertex="1" parent="1">
          <mxGeometry x="480" y="60" width="200" height="430" as="geometry" />
        </mxCell>
        <mxCell id="V0fHYmV4c1mkur13brEI-4" value="Ajout d&#39;une Recette" style="rounded=0;whiteSpace=wrap;html=1;" vertex="1" parent="1">
          <mxGeometry x="490" y="100" width="180" height="20" as="geometry" />
        </mxCell>
        <mxCell id="V0fHYmV4c1mkur13brEI-8" value="" style="rounded=0;whiteSpace=wrap;html=1;" vertex="1" parent="1">
          <mxGeometry x="500" y="300" width="160" height="60" as="geometry" />
        </mxCell>
        <mxCell id="V0fHYmV4c1mkur13brEI-9" value="retour" style="rounded=0;whiteSpace=wrap;html=1;" vertex="1" parent="1">
          <mxGeometry x="510" y="420" width="140" height="20" as="geometry" />
        </mxCell>
        <mxCell id="V0fHYmV4c1mkur13brEI-10" value="" style="endArrow=classic;html=1;rounded=0;exitX=1;exitY=0.5;exitDx=0;exitDy=0;entryX=-0.015;entryY=0.128;entryDx=0;entryDy=0;entryPerimeter=0;" edge="1" parent="1" source="V0fHYmV4c1mkur13brEI-2" target="V0fHYmV4c1mkur13brEI-3">
          <mxGeometry width="50" height="50" relative="1" as="geometry">
            <mxPoint x="550" y="290" as="sourcePoint" />
            <mxPoint x="600" y="240" as="targetPoint" />
            <Array as="points">
              <mxPoint x="360" y="255" />
              <mxPoint x="360" y="115" />
            </Array>
          </mxGeometry>
        </mxCell>
        <mxCell id="V0fHYmV4c1mkur13brEI-12" value="" style="endArrow=classic;html=1;rounded=0;exitX=0;exitY=0.5;exitDx=0;exitDy=0;entryX=0.815;entryY=1.007;entryDx=0;entryDy=0;entryPerimeter=0;" edge="1" parent="1" source="V0fHYmV4c1mkur13brEI-9" target="jhdVVqk1T00AznI-LJh0-9">
          <mxGeometry width="50" height="50" relative="1" as="geometry">
            <mxPoint x="550" y="290" as="sourcePoint" />
            <mxPoint x="600" y="240" as="targetPoint" />
            <Array as="points">
              <mxPoint x="243" y="430" />
            </Array>
          </mxGeometry>
        </mxCell>
        <mxCell id="V0fHYmV4c1mkur13brEI-13" value="" style="rounded=0;whiteSpace=wrap;html=1;" vertex="1" parent="1">
          <mxGeometry x="560" y="130" width="100" height="25" as="geometry" />
        </mxCell>
        <mxCell id="V0fHYmV4c1mkur13brEI-15" value="" style="rounded=0;whiteSpace=wrap;html=1;" vertex="1" parent="1">
          <mxGeometry x="560" y="162.5" width="100" height="27.5" as="geometry" />
        </mxCell>
        <mxCell id="V0fHYmV4c1mkur13brEI-16" value="titre recette" style="text;html=1;strokeColor=none;fillColor=none;align=center;verticalAlign=middle;whiteSpace=wrap;rounded=0;" vertex="1" parent="1">
          <mxGeometry x="495" y="127.5" width="65" height="30" as="geometry" />
        </mxCell>
        <mxCell id="V0fHYmV4c1mkur13brEI-18" value="ajout image" style="text;html=1;strokeColor=none;fillColor=none;align=center;verticalAlign=middle;whiteSpace=wrap;rounded=0;" vertex="1" parent="1">
          <mxGeometry x="492.5" y="161.25" width="65" height="30" as="geometry" />
        </mxCell>
        <mxCell id="V0fHYmV4c1mkur13brEI-19" value="" style="rounded=0;whiteSpace=wrap;html=1;" vertex="1" parent="1">
          <mxGeometry x="560" y="201.25" width="100" height="68.75" as="geometry" />
        </mxCell>
        <mxCell id="V0fHYmV4c1mkur13brEI-20" value="ajout ingrédients." style="text;html=1;strokeColor=none;fillColor=none;align=center;verticalAlign=middle;whiteSpace=wrap;rounded=0;" vertex="1" parent="1">
          <mxGeometry x="492.5" y="200" width="65" height="30" as="geometry" />
        </mxCell>
        <mxCell id="V0fHYmV4c1mkur13brEI-21" value="test" style="rounded=0;whiteSpace=wrap;html=1;" vertex="1" parent="1">
          <mxGeometry x="570" y="205" width="70" height="20" as="geometry" />
        </mxCell>
        <mxCell id="V0fHYmV4c1mkur13brEI-22" value="1." style="text;html=1;strokeColor=none;fillColor=none;align=center;verticalAlign=middle;whiteSpace=wrap;rounded=0;" vertex="1" parent="1">
          <mxGeometry x="557.5" y="225" width="22.5" height="20" as="geometry" />
        </mxCell>
        <mxCell id="V0fHYmV4c1mkur13brEI-23" value="" style="rounded=0;whiteSpace=wrap;html=1;" vertex="1" parent="1">
          <mxGeometry x="650" y="201.25" width="10" height="68.75" as="geometry" />
        </mxCell>
        <mxCell id="V0fHYmV4c1mkur13brEI-24" value="2." style="text;html=1;strokeColor=none;fillColor=none;align=center;verticalAlign=middle;whiteSpace=wrap;rounded=0;" vertex="1" parent="1">
          <mxGeometry x="562.5" y="245" width="12.5" height="20" as="geometry" />
        </mxCell>
        <mxCell id="V0fHYmV4c1mkur13brEI-25" value="+" style="rounded=0;whiteSpace=wrap;html=1;" vertex="1" parent="1">
          <mxGeometry x="630" y="205" width="10" height="20" as="geometry" />
        </mxCell>
        <mxCell id="V0fHYmV4c1mkur13brEI-26" value="Text" style="text;html=1;strokeColor=none;fillColor=none;align=center;verticalAlign=middle;whiteSpace=wrap;rounded=0;" vertex="1" parent="1">
          <mxGeometry x="575" y="225.63" width="60" height="20" as="geometry" />
        </mxCell>
        <mxCell id="V0fHYmV4c1mkur13brEI-27" value="Text" style="text;html=1;strokeColor=none;fillColor=none;align=center;verticalAlign=middle;whiteSpace=wrap;rounded=0;" vertex="1" parent="1">
          <mxGeometry x="575" y="245" width="60" height="20" as="geometry" />
        </mxCell>
        <mxCell id="V0fHYmV4c1mkur13brEI-28" value="-Etape de préparation:" style="text;html=1;strokeColor=none;fillColor=none;align=center;verticalAlign=middle;whiteSpace=wrap;rounded=0;" vertex="1" parent="1">
          <mxGeometry x="500" y="300" width="130" height="30" as="geometry" />
        </mxCell>
        <mxCell id="V0fHYmV4c1mkur13brEI-31" value="Suivre des cours de cuisine" style="rounded=0;whiteSpace=wrap;html=1;" vertex="1" parent="1">
          <mxGeometry x="107.5" y="-242.5" width="157.5" height="30" as="geometry" />
        </mxCell>
        <mxCell id="V0fHYmV4c1mkur13brEI-32" value="Contact" style="rounded=0;whiteSpace=wrap;html=1;" vertex="1" parent="1">
          <mxGeometry x="-545" y="-460" width="190" height="20" as="geometry" />
        </mxCell>
        <mxCell id="V0fHYmV4c1mkur13brEI-33" value="" style="verticalLabelPosition=bottom;verticalAlign=top;html=1;shadow=0;dashed=0;strokeWidth=1;shape=mxgraph.android.phone2;strokeColor=#c0c0c0;" vertex="1" parent="1">
          <mxGeometry x="-550" y="-500" width="200" height="430" as="geometry" />
        </mxCell>
        <mxCell id="V0fHYmV4c1mkur13brEI-34" value="" style="rounded=0;whiteSpace=wrap;html=1;" vertex="1" parent="1">
          <mxGeometry x="-440" y="-410" width="60" height="20" as="geometry" />
        </mxCell>
        <mxCell id="V0fHYmV4c1mkur13brEI-35" value="Name" style="text;html=1;strokeColor=none;fillColor=none;align=center;verticalAlign=middle;whiteSpace=wrap;rounded=0;" vertex="1" parent="1">
          <mxGeometry x="-520" y="-415" width="60" height="30" as="geometry" />
        </mxCell>
        <mxCell id="V0fHYmV4c1mkur13brEI-36" value="Prenom" style="text;html=1;strokeColor=none;fillColor=none;align=center;verticalAlign=middle;whiteSpace=wrap;rounded=0;" vertex="1" parent="1">
          <mxGeometry x="-520" y="-380" width="60" height="30" as="geometry" />
        </mxCell>
        <mxCell id="V0fHYmV4c1mkur13brEI-37" value="" style="rounded=0;whiteSpace=wrap;html=1;" vertex="1" parent="1">
          <mxGeometry x="-440" y="-370" width="60" height="20" as="geometry" />
        </mxCell>
        <mxCell id="V0fHYmV4c1mkur13brEI-38" value="Telephone" style="text;html=1;strokeColor=none;fillColor=none;align=center;verticalAlign=middle;whiteSpace=wrap;rounded=0;" vertex="1" parent="1">
          <mxGeometry x="-520" y="-335" width="60" height="30" as="geometry" />
        </mxCell>
        <mxCell id="V0fHYmV4c1mkur13brEI-39" value="" style="rounded=0;whiteSpace=wrap;html=1;" vertex="1" parent="1">
          <mxGeometry x="-440" y="-330" width="60" height="20" as="geometry" />
        </mxCell>
        <mxCell id="V0fHYmV4c1mkur13brEI-40" value="Courriel" style="text;html=1;strokeColor=none;fillColor=none;align=center;verticalAlign=middle;whiteSpace=wrap;rounded=0;" vertex="1" parent="1">
          <mxGeometry x="-520" y="-290" width="60" height="30" as="geometry" />
        </mxCell>
        <mxCell id="V0fHYmV4c1mkur13brEI-41" value="" style="rounded=0;whiteSpace=wrap;html=1;" vertex="1" parent="1">
          <mxGeometry x="-440" y="-290" width="60" height="20" as="geometry" />
        </mxCell>
        <mxCell id="V0fHYmV4c1mkur13brEI-42" value="Ecrivez-nous" style="text;html=1;strokeColor=none;fillColor=none;align=center;verticalAlign=middle;whiteSpace=wrap;rounded=0;" vertex="1" parent="1">
          <mxGeometry x="-500" y="-250" width="100" height="30" as="geometry" />
        </mxCell>
        <mxCell id="V0fHYmV4c1mkur13brEI-43" value="" style="rounded=0;whiteSpace=wrap;html=1;" vertex="1" parent="1">
          <mxGeometry x="-510" y="-220" width="130" height="60" as="geometry" />
        </mxCell>
        <mxCell id="V0fHYmV4c1mkur13brEI-44" value="Soumettre" style="rounded=0;whiteSpace=wrap;html=1;" vertex="1" parent="1">
          <mxGeometry x="-510" y="-140" width="130" height="20" as="geometry" />
        </mxCell>
        <mxCell id="V0fHYmV4c1mkur13brEI-45" value="" style="verticalLabelPosition=bottom;verticalAlign=top;html=1;shadow=0;dashed=0;strokeWidth=1;shape=mxgraph.android.phone2;strokeColor=#c0c0c0;" vertex="1" parent="1">
          <mxGeometry x="-270" y="-500" width="200" height="430" as="geometry" />
        </mxCell>
        <mxCell id="V0fHYmV4c1mkur13brEI-46" value="Formation" style="rounded=0;whiteSpace=wrap;html=1;" vertex="1" parent="1">
          <mxGeometry x="-260" y="-460" width="180" height="20" as="geometry" />
        </mxCell>
        <mxCell id="V0fHYmV4c1mkur13brEI-47" value="Cours de cuisine&lt;br&gt;Quebecoise" style="rounded=0;whiteSpace=wrap;html=1;" vertex="1" parent="1">
          <mxGeometry x="-235" y="-420" width="130" height="40" as="geometry" />
        </mxCell>
        <mxCell id="V0fHYmV4c1mkur13brEI-48" value="Cours de cuisine&lt;br&gt;Francaise" style="rounded=0;whiteSpace=wrap;html=1;" vertex="1" parent="1">
          <mxGeometry x="-235" y="-325" width="130" height="45" as="geometry" />
        </mxCell>
        <mxCell id="V0fHYmV4c1mkur13brEI-49" value="Decouvrir" style="ellipse;whiteSpace=wrap;html=1;align=center;" vertex="1" parent="1">
          <mxGeometry x="-212.5" y="-370" width="85" height="35" as="geometry" />
        </mxCell>
        <mxCell id="V0fHYmV4c1mkur13brEI-50" value="Decouvrir" style="ellipse;whiteSpace=wrap;html=1;align=center;" vertex="1" parent="1">
          <mxGeometry x="-212.5" y="-270" width="85" height="35" as="geometry" />
        </mxCell>
        <mxCell id="V0fHYmV4c1mkur13brEI-51" value="Decouvrir" style="ellipse;whiteSpace=wrap;html=1;align=center;" vertex="1" parent="1">
          <mxGeometry x="-212.5" y="-155" width="85" height="35" as="geometry" />
        </mxCell>
        <mxCell id="V0fHYmV4c1mkur13brEI-52" value="Cours de cuisine&lt;br&gt;marocaine" style="rounded=0;whiteSpace=wrap;html=1;" vertex="1" parent="1">
          <mxGeometry x="-235" y="-220" width="130" height="45" as="geometry" />
        </mxCell>
        <mxCell id="V0fHYmV4c1mkur13brEI-53" value="" style="endArrow=classic;html=1;rounded=0;exitX=0;exitY=0.5;exitDx=0;exitDy=0;entryX=1;entryY=0.116;entryDx=0;entryDy=0;entryPerimeter=0;" edge="1" parent="1" source="V0fHYmV4c1mkur13brEI-31" target="V0fHYmV4c1mkur13brEI-45">
          <mxGeometry width="50" height="50" relative="1" as="geometry">
            <mxPoint x="-40" y="-220" as="sourcePoint" />
            <mxPoint x="10" y="-270" as="targetPoint" />
            <Array as="points">
              <mxPoint y="-227" />
              <mxPoint y="-450" />
            </Array>
          </mxGeometry>
        </mxCell>
        <mxCell id="V0fHYmV4c1mkur13brEI-54" value="" style="endArrow=classic;html=1;rounded=0;exitX=0;exitY=0.5;exitDx=0;exitDy=0;" edge="1" parent="1" source="V0fHYmV4c1mkur13brEI-49">
          <mxGeometry width="50" height="50" relative="1" as="geometry">
            <mxPoint x="-290" y="-220" as="sourcePoint" />
            <mxPoint x="-340" y="-352" as="targetPoint" />
          </mxGeometry>
        </mxCell>
        <mxCell id="V0fHYmV4c1mkur13brEI-55" value="finish" style="rounded=0;whiteSpace=wrap;html=1;" vertex="1" parent="1">
          <mxGeometry x="510" y="370" width="140" height="20" as="geometry" />
        </mxCell>
        <mxCell id="V0fHYmV4c1mkur13brEI-76" value="supprimer" style="rounded=0;whiteSpace=wrap;html=1;" vertex="1" parent="1">
          <mxGeometry x="510" y="395" width="140" height="20" as="geometry" />
        </mxCell>
        <mxCell id="V0fHYmV4c1mkur13brEI-77" value="" style="endArrow=classic;html=1;rounded=0;" edge="1" parent="1" source="jhdVVqk1T00AznI-LJh0-16">
          <mxGeometry width="50" height="50" relative="1" as="geometry">
            <mxPoint x="170" y="140" as="sourcePoint" />
            <mxPoint x="-60" y="40" as="targetPoint" />
          </mxGeometry>
        </mxCell>
        <mxCell id="V0fHYmV4c1mkur13brEI-78" value="Scroll view" style="rounded=0;whiteSpace=wrap;html=1;" vertex="1" parent="1">
          <mxGeometry x="720" y="150" width="80" height="20" as="geometry" />
        </mxCell>
        <mxCell id="V0fHYmV4c1mkur13brEI-79" value="" style="endArrow=classic;html=1;rounded=0;exitX=0;exitY=0.5;exitDx=0;exitDy=0;entryX=1;entryY=0.25;entryDx=0;entryDy=0;" edge="1" parent="1" source="V0fHYmV4c1mkur13brEI-78" target="V0fHYmV4c1mkur13brEI-23">
          <mxGeometry width="50" height="50" relative="1" as="geometry">
            <mxPoint x="240" y="90" as="sourcePoint" />
            <mxPoint x="290" y="40" as="targetPoint" />
            <Array as="points">
              <mxPoint x="700" y="160" />
              <mxPoint x="700" y="218" />
            </Array>
          </mxGeometry>
        </mxCell>
        <mxCell id="V0fHYmV4c1mkur13brEI-80" value="" style="endArrow=classic;html=1;rounded=0;" edge="1" parent="1" target="jhdVVqk1T00AznI-LJh0-9">
          <mxGeometry width="50" height="50" relative="1" as="geometry">
            <mxPoint x="240" y="-460" as="sourcePoint" />
            <mxPoint x="290" y="-200" as="targetPoint" />
            <Array as="points">
              <mxPoint x="300" y="-460" />
              <mxPoint x="300" y="-160" />
            </Array>
          </mxGeometry>
        </mxCell>
        <mxCell id="V0fHYmV4c1mkur13brEI-81" value="" style="endArrow=classic;html=1;rounded=0;exitX=0;exitY=1;exitDx=0;exitDy=0;" edge="1" parent="1" source="0M3PZkxBcpdMloxoKqqF-2">
          <mxGeometry width="50" height="50" relative="1" as="geometry">
            <mxPoint x="240" y="90" as="sourcePoint" />
            <mxPoint x="270" y="50" as="targetPoint" />
          </mxGeometry>
        </mxCell>
        <mxCell id="V0fHYmV4c1mkur13brEI-82" value="&lt;font style=&quot;font-size: 24px;&quot;&gt;Base de données&lt;/font&gt;" style="text;html=1;strokeColor=none;fillColor=none;align=center;verticalAlign=middle;whiteSpace=wrap;rounded=0;" vertex="1" parent="1">
          <mxGeometry x="-320" y="535" width="190" height="30" as="geometry" />
        </mxCell>
        <mxCell id="V0fHYmV4c1mkur13brEI-83" value="&lt;p style=&quot;border: 0px solid rgb(217, 217, 227); box-sizing: border-box; --tw-border-spacing-x: 0; --tw-border-spacing-y: 0; --tw-translate-x: 0; --tw-translate-y: 0; --tw-rotate: 0; --tw-skew-x: 0; --tw-skew-y: 0; --tw-scale-x: 1; --tw-scale-y: 1; --tw-pan-x: ; --tw-pan-y: ; --tw-pinch-zoom: ; --tw-scroll-snap-strictness: proximity; --tw-gradient-from-position: ; --tw-gradient-via-position: ; --tw-gradient-to-position: ; --tw-ordinal: ; --tw-slashed-zero: ; --tw-numeric-figure: ; --tw-numeric-spacing: ; --tw-numeric-fraction: ; --tw-ring-inset: ; --tw-ring-offset-width: 0px; --tw-ring-offset-color: #fff; --tw-ring-color: rgba(69,89,164,0.5); --tw-ring-offset-shadow: 0 0 transparent; --tw-ring-shadow: 0 0 transparent; --tw-shadow: 0 0 transparent; --tw-shadow-colored: 0 0 transparent; --tw-blur: ; --tw-brightness: ; --tw-contrast: ; --tw-grayscale: ; --tw-hue-rotate: ; --tw-invert: ; --tw-saturate: ; --tw-sepia: ; --tw-drop-shadow: ; --tw-backdrop-blur: ; --tw-backdrop-brightness: ; --tw-backdrop-contrast: ; --tw-backdrop-grayscale: ; --tw-backdrop-hue-rotate: ; --tw-backdrop-invert: ; --tw-backdrop-opacity: ; --tw-backdrop-saturate: ; --tw-backdrop-sepia: ; margin: 1.25em 0px; color: rgb(55, 65, 81); font-family: Söhne, ui-sans-serif, system-ui, -apple-system, &amp;quot;Segoe UI&amp;quot;, Roboto, Ubuntu, Cantarell, &amp;quot;Noto Sans&amp;quot;, sans-serif, &amp;quot;Helvetica Neue&amp;quot;, Arial, &amp;quot;Apple Color Emoji&amp;quot;, &amp;quot;Segoe UI Emoji&amp;quot;, &amp;quot;Segoe UI Symbol&amp;quot;, &amp;quot;Noto Color Emoji&amp;quot;; font-size: 16px; text-align: start; background-color: rgb(247, 247, 248);&quot;&gt;Table : Recettes&lt;/p&gt;&lt;ul style=&quot;border: 0px solid rgb(217, 217, 227); box-sizing: border-box; --tw-border-spacing-x: 0; --tw-border-spacing-y: 0; --tw-translate-x: 0; --tw-translate-y: 0; --tw-rotate: 0; --tw-skew-x: 0; --tw-skew-y: 0; --tw-scale-x: 1; --tw-scale-y: 1; --tw-pan-x: ; --tw-pan-y: ; --tw-pinch-zoom: ; --tw-scroll-snap-strictness: proximity; --tw-gradient-from-position: ; --tw-gradient-via-position: ; --tw-gradient-to-position: ; --tw-ordinal: ; --tw-slashed-zero: ; --tw-numeric-figure: ; --tw-numeric-spacing: ; --tw-numeric-fraction: ; --tw-ring-inset: ; --tw-ring-offset-width: 0px; --tw-ring-offset-color: #fff; --tw-ring-color: rgba(69,89,164,0.5); --tw-ring-offset-shadow: 0 0 transparent; --tw-ring-shadow: 0 0 transparent; --tw-shadow: 0 0 transparent; --tw-shadow-colored: 0 0 transparent; --tw-blur: ; --tw-brightness: ; --tw-contrast: ; --tw-grayscale: ; --tw-hue-rotate: ; --tw-invert: ; --tw-saturate: ; --tw-sepia: ; --tw-drop-shadow: ; --tw-backdrop-blur: ; --tw-backdrop-brightness: ; --tw-backdrop-contrast: ; --tw-backdrop-grayscale: ; --tw-backdrop-hue-rotate: ; --tw-backdrop-invert: ; --tw-backdrop-opacity: ; --tw-backdrop-saturate: ; --tw-backdrop-sepia: ; list-style-position: initial; list-style-image: initial; margin: 1.25em 0px; padding: 0px 0px 0px 1rem; display: flex; flex-direction: column; color: rgb(55, 65, 81); font-family: Söhne, ui-sans-serif, system-ui, -apple-system, &amp;quot;Segoe UI&amp;quot;, Roboto, Ubuntu, Cantarell, &amp;quot;Noto Sans&amp;quot;, sans-serif, &amp;quot;Helvetica Neue&amp;quot;, Arial, &amp;quot;Apple Color Emoji&amp;quot;, &amp;quot;Segoe UI Emoji&amp;quot;, &amp;quot;Segoe UI Symbol&amp;quot;, &amp;quot;Noto Color Emoji&amp;quot;; font-size: 16px; text-align: start; background-color: rgb(247, 247, 248);&quot;&gt;&lt;li style=&quot;border: 0px solid rgb(217, 217, 227); box-sizing: border-box; --tw-border-spacing-x: 0; --tw-border-spacing-y: 0; --tw-translate-x: 0; --tw-translate-y: 0; --tw-rotate: 0; --tw-skew-x: 0; --tw-skew-y: 0; --tw-scale-x: 1; --tw-scale-y: 1; --tw-pan-x: ; --tw-pan-y: ; --tw-pinch-zoom: ; --tw-scroll-snap-strictness: proximity; --tw-gradient-from-position: ; --tw-gradient-via-position: ; --tw-gradient-to-position: ; --tw-ordinal: ; --tw-slashed-zero: ; --tw-numeric-figure: ; --tw-numeric-spacing: ; --tw-numeric-fraction: ; --tw-ring-inset: ; --tw-ring-offset-width: 0px; --tw-ring-offset-color: #fff; --tw-ring-color: rgba(69,89,164,.5); --tw-ring-offset-shadow: 0 0 transparent; --tw-ring-shadow: 0 0 transparent; --tw-shadow: 0 0 transparent; --tw-shadow-colored: 0 0 transparent; --tw-blur: ; --tw-brightness: ; --tw-contrast: ; --tw-grayscale: ; --tw-hue-rotate: ; --tw-invert: ; --tw-saturate: ; --tw-sepia: ; --tw-drop-shadow: ; --tw-backdrop-blur: ; --tw-backdrop-brightness: ; --tw-backdrop-contrast: ; --tw-backdrop-grayscale: ; --tw-backdrop-hue-rotate: ; --tw-backdrop-invert: ; --tw-backdrop-opacity: ; --tw-backdrop-saturate: ; --tw-backdrop-sepia: ; margin: 0px; padding-left: 0.375em; display: block; position: relative;&quot;&gt;Id (INTEGER, clé primaire)&lt;/li&gt;&lt;li style=&quot;border: 0px solid rgb(217, 217, 227); box-sizing: border-box; --tw-border-spacing-x: 0; --tw-border-spacing-y: 0; --tw-translate-x: 0; --tw-translate-y: 0; --tw-rotate: 0; --tw-skew-x: 0; --tw-skew-y: 0; --tw-scale-x: 1; --tw-scale-y: 1; --tw-pan-x: ; --tw-pan-y: ; --tw-pinch-zoom: ; --tw-scroll-snap-strictness: proximity; --tw-gradient-from-position: ; --tw-gradient-via-position: ; --tw-gradient-to-position: ; --tw-ordinal: ; --tw-slashed-zero: ; --tw-numeric-figure: ; --tw-numeric-spacing: ; --tw-numeric-fraction: ; --tw-ring-inset: ; --tw-ring-offset-width: 0px; --tw-ring-offset-color: #fff; --tw-ring-color: rgba(69,89,164,.5); --tw-ring-offset-shadow: 0 0 transparent; --tw-ring-shadow: 0 0 transparent; --tw-shadow: 0 0 transparent; --tw-shadow-colored: 0 0 transparent; --tw-blur: ; --tw-brightness: ; --tw-contrast: ; --tw-grayscale: ; --tw-hue-rotate: ; --tw-invert: ; --tw-saturate: ; --tw-sepia: ; --tw-drop-shadow: ; --tw-backdrop-blur: ; --tw-backdrop-brightness: ; --tw-backdrop-contrast: ; --tw-backdrop-grayscale: ; --tw-backdrop-hue-rotate: ; --tw-backdrop-invert: ; --tw-backdrop-opacity: ; --tw-backdrop-saturate: ; --tw-backdrop-sepia: ; margin: 0px; padding-left: 0.375em; display: block; position: relative;&quot;&gt;Titre (TEXT)&lt;/li&gt;&lt;li style=&quot;border: 0px solid rgb(217, 217, 227); box-sizing: border-box; --tw-border-spacing-x: 0; --tw-border-spacing-y: 0; --tw-translate-x: 0; --tw-translate-y: 0; --tw-rotate: 0; --tw-skew-x: 0; --tw-skew-y: 0; --tw-scale-x: 1; --tw-scale-y: 1; --tw-pan-x: ; --tw-pan-y: ; --tw-pinch-zoom: ; --tw-scroll-snap-strictness: proximity; --tw-gradient-from-position: ; --tw-gradient-via-position: ; --tw-gradient-to-position: ; --tw-ordinal: ; --tw-slashed-zero: ; --tw-numeric-figure: ; --tw-numeric-spacing: ; --tw-numeric-fraction: ; --tw-ring-inset: ; --tw-ring-offset-width: 0px; --tw-ring-offset-color: #fff; --tw-ring-color: rgba(69,89,164,.5); --tw-ring-offset-shadow: 0 0 transparent; --tw-ring-shadow: 0 0 transparent; --tw-shadow: 0 0 transparent; --tw-shadow-colored: 0 0 transparent; --tw-blur: ; --tw-brightness: ; --tw-contrast: ; --tw-grayscale: ; --tw-hue-rotate: ; --tw-invert: ; --tw-saturate: ; --tw-sepia: ; --tw-drop-shadow: ; --tw-backdrop-blur: ; --tw-backdrop-brightness: ; --tw-backdrop-contrast: ; --tw-backdrop-grayscale: ; --tw-backdrop-hue-rotate: ; --tw-backdrop-invert: ; --tw-backdrop-opacity: ; --tw-backdrop-saturate: ; --tw-backdrop-sepia: ; margin: 0px; padding-left: 0.375em; display: block; position: relative;&quot;&gt;Description (TEXT)&lt;/li&gt;&lt;li style=&quot;border: 0px solid rgb(217, 217, 227); box-sizing: border-box; --tw-border-spacing-x: 0; --tw-border-spacing-y: 0; --tw-translate-x: 0; --tw-translate-y: 0; --tw-rotate: 0; --tw-skew-x: 0; --tw-skew-y: 0; --tw-scale-x: 1; --tw-scale-y: 1; --tw-pan-x: ; --tw-pan-y: ; --tw-pinch-zoom: ; --tw-scroll-snap-strictness: proximity; --tw-gradient-from-position: ; --tw-gradient-via-position: ; --tw-gradient-to-position: ; --tw-ordinal: ; --tw-slashed-zero: ; --tw-numeric-figure: ; --tw-numeric-spacing: ; --tw-numeric-fraction: ; --tw-ring-inset: ; --tw-ring-offset-width: 0px; --tw-ring-offset-color: #fff; --tw-ring-color: rgba(69,89,164,.5); --tw-ring-offset-shadow: 0 0 transparent; --tw-ring-shadow: 0 0 transparent; --tw-shadow: 0 0 transparent; --tw-shadow-colored: 0 0 transparent; --tw-blur: ; --tw-brightness: ; --tw-contrast: ; --tw-grayscale: ; --tw-hue-rotate: ; --tw-invert: ; --tw-saturate: ; --tw-sepia: ; --tw-drop-shadow: ; --tw-backdrop-blur: ; --tw-backdrop-brightness: ; --tw-backdrop-contrast: ; --tw-backdrop-grayscale: ; --tw-backdrop-hue-rotate: ; --tw-backdrop-invert: ; --tw-backdrop-opacity: ; --tw-backdrop-saturate: ; --tw-backdrop-sepia: ; margin: 0px; padding-left: 0.375em; display: block; position: relative;&quot;&gt;Pays (TEXT)&lt;/li&gt;&lt;li style=&quot;border: 0px solid rgb(217, 217, 227); box-sizing: border-box; --tw-border-spacing-x: 0; --tw-border-spacing-y: 0; --tw-translate-x: 0; --tw-translate-y: 0; --tw-rotate: 0; --tw-skew-x: 0; --tw-skew-y: 0; --tw-scale-x: 1; --tw-scale-y: 1; --tw-pan-x: ; --tw-pan-y: ; --tw-pinch-zoom: ; --tw-scroll-snap-strictness: proximity; --tw-gradient-from-position: ; --tw-gradient-via-position: ; --tw-gradient-to-position: ; --tw-ordinal: ; --tw-slashed-zero: ; --tw-numeric-figure: ; --tw-numeric-spacing: ; --tw-numeric-fraction: ; --tw-ring-inset: ; --tw-ring-offset-width: 0px; --tw-ring-offset-color: #fff; --tw-ring-color: rgba(69,89,164,.5); --tw-ring-offset-shadow: 0 0 transparent; --tw-ring-shadow: 0 0 transparent; --tw-shadow: 0 0 transparent; --tw-shadow-colored: 0 0 transparent; --tw-blur: ; --tw-brightness: ; --tw-contrast: ; --tw-grayscale: ; --tw-hue-rotate: ; --tw-invert: ; --tw-saturate: ; --tw-sepia: ; --tw-drop-shadow: ; --tw-backdrop-blur: ; --tw-backdrop-brightness: ; --tw-backdrop-contrast: ; --tw-backdrop-grayscale: ; --tw-backdrop-hue-rotate: ; --tw-backdrop-invert: ; --tw-backdrop-opacity: ; --tw-backdrop-saturate: ; --tw-backdrop-sepia: ; margin: 0px; padding-left: 0.375em; display: block; position: relative;&quot;&gt;Ingrédients (TEXT)&lt;/li&gt;&lt;li style=&quot;border: 0px solid rgb(217, 217, 227); box-sizing: border-box; --tw-border-spacing-x: 0; --tw-border-spacing-y: 0; --tw-translate-x: 0; --tw-translate-y: 0; --tw-rotate: 0; --tw-skew-x: 0; --tw-skew-y: 0; --tw-scale-x: 1; --tw-scale-y: 1; --tw-pan-x: ; --tw-pan-y: ; --tw-pinch-zoom: ; --tw-scroll-snap-strictness: proximity; --tw-gradient-from-position: ; --tw-gradient-via-position: ; --tw-gradient-to-position: ; --tw-ordinal: ; --tw-slashed-zero: ; --tw-numeric-figure: ; --tw-numeric-spacing: ; --tw-numeric-fraction: ; --tw-ring-inset: ; --tw-ring-offset-width: 0px; --tw-ring-offset-color: #fff; --tw-ring-color: rgba(69,89,164,.5); --tw-ring-offset-shadow: 0 0 transparent; --tw-ring-shadow: 0 0 transparent; --tw-shadow: 0 0 transparent; --tw-shadow-colored: 0 0 transparent; --tw-blur: ; --tw-brightness: ; --tw-contrast: ; --tw-grayscale: ; --tw-hue-rotate: ; --tw-invert: ; --tw-saturate: ; --tw-sepia: ; --tw-drop-shadow: ; --tw-backdrop-blur: ; --tw-backdrop-brightness: ; --tw-backdrop-contrast: ; --tw-backdrop-grayscale: ; --tw-backdrop-hue-rotate: ; --tw-backdrop-invert: ; --tw-backdrop-opacity: ; --tw-backdrop-saturate: ; --tw-backdrop-sepia: ; margin: 0px; padding-left: 0.375em; display: block; position: relative;&quot;&gt;Instructions (TEXT)&lt;/li&gt;&lt;/ul&gt;" style="text;html=1;strokeColor=none;fillColor=none;align=center;verticalAlign=middle;whiteSpace=wrap;rounded=0;" vertex="1" parent="1">
          <mxGeometry x="-355" y="590" width="390" height="170" as="geometry" />
        </mxCell>
      </root>
    </mxGraphModel>
  </diagram>
</mxfile>
